<svg height="793" viewBox="0 0 793 793" width="793" xmlns="http://www.w3.org/2000/svg"><g fill="none" stroke="#fff"><path d="m129.776138 441.070862c257.673966 284.645386 505.958176-1.627991 506.423142-2.154907" stroke-width="53.333332"/><path d="m637.91571 474.016266c-257.67398-284.645416-505.958206 1.627991-506.423187 2.154999" stroke-width="53.333332"/><path d="m600.736816 357.263245 70.372071-73.80481" stroke-width="32"/><path d="m533.797607 317.786194 49.77533-92.685059" stroke-width="32"/><path d="m456.559998 288.607605 29.178619-97.83429" stroke-width="32"/><path d="m375.889618 283.458435v-109.84906" stroke-width="32"/><path d="m300.368408 292.040405-29.17865-104.69989" stroke-width="32"/><path d="m223.130844 319.502625-46.342575-85.81952" stroke-width="32"/><path d="m161.340744 362.412354-61.790039-77.237549" stroke-width="32"/></g><path d="m449.694427 454.239197c0 36.495575-30.353942 66.081054-67.797424 66.081054-37.443512 0-67.797455-29.585479-67.797455-66.081054 0-36.495545 30.353943-66.081055 67.797455-66.081055 37.443482 0 67.797424 29.58551 67.797424 66.081055z" fill="#fff"/></svg>