<svg width="60" height="60" viewBox="0 0 60 60" xmlns="http://www.w3.org/2000/svg" xmlns:xlink="http://www.w3.org/1999/xlink">
    <g id="g851">
        <path id="rect764" fill="#dcdcdc" fill-rule="evenodd" stroke="none" d="M 4.850942 13.048508 L 54.855061 13.048508 C 56.03664 13.048508 56.994507 13.910442 56.994507 14.97369 L 56.994507 36.412498 C 56.994507 37.475746 56.03664 38.337681 54.855061 38.337681 L 4.850942 38.337681 C 3.669362 38.337681 2.711501 37.475746 2.711501 36.412498 L 2.711501 14.97369 C 2.711501 13.910442 3.669362 13.048508 4.850942 13.048508 Z"/>
        <path id="rect766" fill="#4daa00" fill-rule="evenodd" stroke="none" d="M 24.884211 15.83728 L 36.456879 15.83728 L 36.456879 20.655857 L 24.884211 20.655857 Z"/>
        <path id="rect766-copy" fill="#646464" fill-rule="evenodd" stroke="none" d="M 14.884211 22.83728 L 49 22.83728 L 49 26 L 14.884211 26 Z"/>
        <path id="rect765" fill="#ffffff" fill-rule="evenodd" stroke="#333333" stroke-width="2.541209" stroke-opacity="0.369204" stroke-linecap="round" stroke-linejoin="round" d="M 18.062677 23.515369 L 45.632217 23.515369 C 47.045204 23.515369 47.802032 24.416424 47.322655 25.527931 C 47.322655 25.527931 42.724533 31.427099 41 35 C 38.581219 40.011253 36.916649 47 35.503674 47 L 7.934124 47 C 6.521146 47 5.764316 46.098942 6.243691 44.987434 C 6.243691 44.987434 6.86628 39.68269 9 35 C 11.865003 28.712429 14.636267 25.527931 14.636267 25.527931 C 15.115643 24.416424 16.649698 23.515369 18.062677 23.515369 Z"/>
    </g>
</svg>
